<?xml version="1.0" encoding="UTF-8" standalone="no"?>
<!-- Created with Inkscape (http://www.inkscape.org/) -->

<svg
   xmlns:dc="http://purl.org/dc/elements/1.1/"
   xmlns:cc="http://creativecommons.org/ns#"
   xmlns:rdf="http://www.w3.org/1999/02/22-rdf-syntax-ns#"
   xmlns:svg="http://www.w3.org/2000/svg"
   xmlns="http://www.w3.org/2000/svg"
   xmlns:xlink="http://www.w3.org/1999/xlink"
   xmlns:sodipodi="http://sodipodi.sourceforge.net/DTD/sodipodi-0.dtd"
   xmlns:inkscape="http://www.inkscape.org/namespaces/inkscape"
   width="191.29955"
   height="162.06445"
   viewBox="0 0 191.29955 162.06445"
   id="svg2"
   version="1.1"
   inkscape:version="0.91 r13725"
   sodipodi:docname="twinlogo.svg"
   inkscape:export-filename="/Users/Maczone/Desktop/tiwns.png"
   inkscape:export-xdpi="54.130001"
   inkscape:export-ydpi="54.130001">
  <defs
     id="defs4">
    <linearGradient
       inkscape:collect="always"
       id="linearGradient4272">
      <stop
         style="stop-color:#90f89a;stop-opacity:1"
         offset="0"
         id="stop4274" />
      <stop
         style="stop-color:#9af99b;stop-opacity:1"
         offset="1"
         id="stop4276" />
    </linearGradient>
    <linearGradient
       inkscape:collect="always"
       id="linearGradient4248">
      <stop
         style="stop-color:#272727;stop-opacity:1"
         offset="0"
         id="stop4250" />
      <stop
         style="stop-color:#000000;stop-opacity:1"
         offset="1"
         id="stop4252" />
    </linearGradient>
    <filter
       style="color-interpolation-filters:sRGB"
       inkscape:label="Drop Shadow"
       id="filter4345">
      <feFlood
         flood-opacity="0.498039"
         flood-color="rgb(10,41,41)"
         result="flood"
         id="feFlood4347" />
      <feComposite
         in="flood"
         in2="SourceGraphic"
         operator="in"
         result="composite1"
         id="feComposite4349" />
      <feGaussianBlur
         in="composite1"
         stdDeviation="8.5"
         result="blur"
         id="feGaussianBlur4351" />
      <feOffset
         dx="-0.5"
         dy="7.7"
         result="offset"
         id="feOffset4353" />
      <feComposite
         in="SourceGraphic"
         in2="offset"
         operator="over"
         result="fbSourceGraphic"
         id="feComposite4355" />
      <feColorMatrix
         result="fbSourceGraphicAlpha"
         in="fbSourceGraphic"
         values="0 0 0 -1 0 0 0 0 -1 0 0 0 0 -1 0 0 0 0 1 0"
         id="feColorMatrix4357" />
      <feFlood
         id="feFlood4359"
         flood-opacity="0.498039"
         flood-color="rgb(10,41,41)"
         result="flood"
         in="fbSourceGraphic" />
      <feComposite
         id="feComposite4361"
         in2="fbSourceGraphic"
         in="flood"
         operator="in"
         result="composite1" />
      <feGaussianBlur
         id="feGaussianBlur4363"
         in="composite1"
         stdDeviation="8.5"
         result="blur" />
      <feOffset
         id="feOffset4365"
         dx="-0.5"
         dy="7.7"
         result="offset" />
      <feComposite
         id="feComposite4367"
         in2="offset"
         in="fbSourceGraphic"
         operator="over"
         result="composite2" />
    </filter>
    <linearGradient
       inkscape:collect="always"
       xlink:href="#linearGradient4248"
       id="linearGradient4254"
       x1="177.36505"
       y1="329.81543"
       x2="168.91196"
       y2="233.5701"
       gradientUnits="userSpaceOnUse"
       gradientTransform="matrix(0.21874048,0,0,0.21874049,-155.21139,561.41417)" />
    <linearGradient
       inkscape:collect="always"
       xlink:href="#linearGradient4248"
       id="linearGradient4262"
       x1="532.85217"
       y1="439.89426"
       x2="499.46671"
       y2="375.65436"
       gradientUnits="userSpaceOnUse"
       gradientTransform="matrix(0.21874048,0,0,0.21874048,-89.205758,577.44826)" />
    <linearGradient
       inkscape:collect="always"
       xlink:href="#linearGradient4272"
       id="linearGradient4278"
       x1="294.34811"
       y1="580.63763"
       x2="342.36505"
       y2="175.65997"
       gradientUnits="userSpaceOnUse" />
  </defs>
  <sodipodi:namedview
     id="base"
     pagecolor="#ffffff"
     bordercolor="#666666"
     borderopacity="1.0"
     inkscape:pageopacity="0.0"
     inkscape:pageshadow="2"
     inkscape:zoom="2.3014977"
     inkscape:cx="92.942196"
     inkscape:cy="77.033171"
     inkscape:document-units="px"
     inkscape:current-layer="layer3"
     showgrid="false"
     inkscape:window-width="1276"
     inkscape:window-height="756"
     inkscape:window-x="4"
     inkscape:window-y="0"
     inkscape:window-maximized="1"
     fit-margin-top="0"
     fit-margin-left="0"
     fit-margin-right="0"
     fit-margin-bottom="0"
     units="px" />
  <metadata
     id="metadata7">
    <rdf:RDF>
      <cc:Work
         rdf:about="">
        <dc:format>image/svg+xml</dc:format>
        <dc:type
           rdf:resource="http://purl.org/dc/dcmitype/StillImage" />
        <dc:title></dc:title>
      </cc:Work>
    </rdf:RDF>
  </metadata>
  <g
     inkscape:groupmode="layer"
     id="layer3"
     inkscape:label="head"
     style="display:inline"
     transform="translate(114.18198,-577.06031)">
    <path
       style="fill:url(#linearGradient4278);fill-opacity:1;fill-rule:evenodd;stroke:none;stroke-width:1px;stroke-linecap:butt;stroke-linejoin:miter;stroke-opacity:1;filter:url(#filter4345)"
       d="M 300.30011,59.999897 C 203.27962,61.579399 -36.584785,262.74058 -41.157884,413.65282 -45.730982,564.56506 57.925911,678.89252 271.33716,677.36815 484.7484,675.84379 687.45792,588.93934 687.48909,447.18888 687.52026,305.43842 517.73349,205.42519 464.93165,160.60806 412.12981,115.79093 397.3206,58.420395 300.30011,59.999897 Z"
       id="path4183"
       inkscape:connector-curvature="0"
       sodipodi:nodetypes="zsszzz"
       transform="matrix(0.21874048,0,0,0.21874048,-89.205758,577.44826)" />
    <path
       sodipodi:nodetypes="zcsscz"
       inkscape:connector-curvature="0"
       id="path4304"
       d="m 29.230216,708.61559 c -15.51429,7.95151 -54.596267,21.78694 -104.443335,5.80945 11.093412,7.19827 26.205663,11.32788 45.359782,11.19106 46.681678,-0.33344 91.022458,-19.34296 91.029275,-50.34953 0.0016,-8.06318 -2.508447,-15.50897 -6.427416,-22.2856 9.546535,34.48917 -10.004016,47.68311 -25.518306,55.63462 z"
       style="fill:#67f66b;fill-opacity:1;fill-rule:evenodd;stroke:none;stroke-width:1px;stroke-linecap:butt;stroke-linejoin:miter;stroke-opacity:1" />
    <ellipse
       style="opacity:1;fill:#9df99f;fill-opacity:1;fill-rule:nonzero;stroke:none;stroke-width:5.19999981;stroke-linecap:round;stroke-linejoin:round;stroke-miterlimit:4;stroke-dasharray:none;stroke-dashoffset:0;stroke-opacity:1"
       id="path4195"
       cx="-44.691441"
       cy="637.9212"
       rx="2.8342447"
       ry="3.3344057" />
    <path
       style="display:inline;fill:#67f66b;fill-opacity:1;fill-rule:evenodd;stroke:none;stroke-width:1px;stroke-linecap:butt;stroke-linejoin:miter;stroke-opacity:1"
       d="m -32.854304,614.58039 c -2.667522,5.66849 -5.335047,10.51836 -13.67106,14.85309 -8.336016,4.33472 -23.75437,10.70233 -28.34245,17.59793 -5.594069,8.40753 -9.898835,8.67525 -9.898835,8.67525 -2.141198,-1.48237 4.230346,-19.78607 16.234206,-26.78833 12.00386,-7.00225 29.009328,-12.67074 31.009972,-16.67203 2.000645,-4.00128 4.668167,2.33409 4.668167,2.33409 z"
       id="path4193"
       inkscape:connector-curvature="0"
       sodipodi:nodetypes="csssssc" />
    <path
       style="fill:#67f66b;fill-opacity:1;fill-rule:evenodd;stroke:none;stroke-width:1px;stroke-linecap:butt;stroke-linejoin:miter;stroke-opacity:1"
       d="m 22.315131,660.44635 c 9.112741,2.6804 6.323203,10.55125 13.965847,11.18814 0,0 10.557016,-8.70522 1.22068,-15.04059 -9.336337,-6.33537 -24.320396,-10.03103 -39.3459865,-13.00418 -12.8861865,-2.54982 -29.1760535,-22.67396 -23.0074005,4.66817 0.804708,3.56681 21.3047408,4.58143 47.16686,12.18846 z"
       id="path4191"
       inkscape:connector-curvature="0"
       sodipodi:nodetypes="ssssss" />
    <path
       style="opacity:1;fill:#f9af96;fill-opacity:1;fill-rule:nonzero;stroke:none;stroke-width:5.19999981;stroke-linecap:round;stroke-linejoin:round;stroke-miterlimit:4;stroke-dasharray:none;stroke-dashoffset:0;stroke-opacity:1"
       id="path4256"
       sodipodi:type="arc"
       sodipodi:cx="-141.76765"
       sodipodi:cy="671.99054"
       sodipodi:rx="7.7709403"
       sodipodi:ry="4.2988186"
       sodipodi:start="0"
       sodipodi:end="5.8253898"
       d="m -133.99671,671.99054 a 7.7709403,4.2988186 0 0 1 -6.88351,4.27069 7.7709403,4.2988186 0 0 1 -8.45569,-3.29527 7.7709403,4.2988186 0 0 1 4.95224,-5.02333 7.7709403,4.2988186 0 0 1 9.58677,2.14795"
       transform="matrix(0.96472219,-0.26326999,0.26326999,0.96472219,0,0)"
       sodipodi:open="true" />
    <path
       transform="matrix(0.96055129,0.27810288,-0.27810288,0.96055129,0,0)"
       d="m 111.07239,687.28889 a 7.7709403,4.2988186 0 0 1 -8.34073,3.94472 7.7709403,4.2988186 0 0 1 -7.155554,-4.6023 7.7709403,4.2988186 0 0 1 8.298294,-3.97202 7.7709403,4.2988186 0 0 1 7.20477,4.57874 l -7.75316,-0.29064 z"
       sodipodi:end="0.06766218"
       sodipodi:start="0.079524961"
       sodipodi:ry="4.2988186"
       sodipodi:rx="7.7709403"
       sodipodi:cy="686.94739"
       sodipodi:cx="103.32601"
       sodipodi:type="arc"
       id="path4258"
       style="opacity:1;fill:#f9af96;fill-opacity:1;fill-rule:nonzero;stroke:none;stroke-width:5.19999981;stroke-linecap:round;stroke-linejoin:round;stroke-miterlimit:4;stroke-dasharray:none;stroke-dashoffset:0;stroke-opacity:1" />
    <path
       style="fill:#67f66b;fill-opacity:1;fill-rule:evenodd;stroke:none;stroke-width:1px;stroke-linecap:butt;stroke-linejoin:miter;stroke-opacity:1"
       d="m -25.710531,649.22077 c -2.055055,-9.72099 -2.540334,-12.31287 0.69457,-17.15317 -4.234246,3.35768 -4.052428,7.74519 -0.69457,17.15317 z"
       id="path4300"
       inkscape:connector-curvature="0"
       sodipodi:nodetypes="ccc" />
  </g>
  <g
     inkscape:label="eyes"
     inkscape:groupmode="layer"
     id="layer1"
     style="display:inline"
     transform="translate(114.18198,-577.06031)">
    <path
       sodipodi:nodetypes="ssscsssss"
       inkscape:connector-curvature="0"
       id="path4267"
       d="m -44.595088,629.23208 c -4.612905,-0.14584 -16.199827,5.45018 -24.116567,11.54881 -8.444523,6.50521 -13.987013,16.77797 -14.535975,26.46505 -1.063704,18.77028 7.920555,30.82978 21.308757,31.15666 10.909955,0.32689 24.03374,-7.81432 24.470794,-16.07554 0.463307,-8.75746 -2.840382,-15.62068 -2.939325,-22.41449 -0.09895,-6.79381 3.615083,-13.90148 3.277262,-20.89442 -0.337164,-6.97927 -2.760142,-8.68179 -6.63826,-9.67884 -0.242384,-0.0623 -0.51916,-0.0975 -0.826686,-0.10723 z"
       style="fill:#ffffef;fill-opacity:1;fill-rule:evenodd;stroke:none;stroke-width:1px;stroke-linecap:butt;stroke-linejoin:miter;stroke-opacity:1" />
    <ellipse
       transform="matrix(0.99184691,-0.1274351,0.11531626,0.99332883,0,0)"
       ry="8.6586933"
       rx="6.5145097"
       cy="627.97174"
       cx="-117.16578"
       id="ellipse4189"
       style="display:inline;opacity:1;fill:url(#linearGradient4254);fill-opacity:1;fill-rule:nonzero;stroke:none;stroke-width:5.19999981;stroke-linecap:round;stroke-linejoin:round;stroke-miterlimit:4;stroke-dasharray:none;stroke-dashoffset:0;stroke-opacity:1" />
    <path
       style="fill:#ffffef;fill-opacity:1;fill-rule:evenodd;stroke:none;stroke-width:1px;stroke-linecap:butt;stroke-linejoin:miter;stroke-opacity:1"
       d="m -18.465001,653.0765 c -2.688455,-0.11716 -5.778906,-0.0638 -7.365987,2.53579 -4.241484,5.28979 -6.55193,12.25278 -6.000977,19.03441 1.157941,7.3175 7.407517,12.88688 14.11424,15.33192 1.248158,0.60317 5.582683,1.14753 9.1142356,1.21295 3.5315497,0.0654 12.7379107,-1.13969 20.9471084,-3.23446 6.780363,-1.96552 13.964849,-4.38777 18.814804,-9.7903 2.748368,-3.03264 3.781822,-8.08644 0.97158,-11.42227 -3.908634,-4.66159 -9.976592,-6.65799 -15.576172,-8.47516 -11.3614036,-3.25645 -23.2134411,-4.88267 -35.018832,-5.19288 z"
       id="path4260"
       inkscape:connector-curvature="0"
       sodipodi:nodetypes="cccccccccc" />
    <path
       style="fill:url(#linearGradient4262);fill-opacity:1;fill-rule:evenodd;stroke:none;stroke-width:1px;stroke-linecap:butt;stroke-linejoin:miter;stroke-opacity:1"
       d="m 20.80403,659.70648 a 8.9947988,6.8447313 84.036702 0 0 -2.762451,8.4198 8.9947988,6.8447313 84.036702 0 0 7.840051,8.07075 8.9947988,6.8447313 84.036702 0 0 5.741511,-9.79504 8.9947988,6.8447313 84.036702 0 0 -0.03973,-0.27343 c -2.887465,-3.117 -6.785737,-4.96921 -10.779378,-6.42208 z"
       id="path4282"
       inkscape:connector-curvature="0" />
    <path
       inkscape:connector-curvature="0"
       id="path4210"
       d="m -18.715538,653.30033 c -2.595334,-0.0209 -4.360337,0.12048 -4.899018,0.40031 -3.447548,1.79091 -8.88471,10.77657 -8.563774,20.01604 0.285357,8.21527 9.145809,16.32077 19.193457,17.4431 10.0476474,1.12232 46.592495,-4.07975 46.547029,-19.58821 -0.03904,-13.31459 -38.2629073,-18.15841 -52.277694,-18.27124 z"
       style="fill:#ffffff;fill-opacity:0;fill-rule:nonzero;stroke:none;stroke-width:1px;stroke-linecap:butt;stroke-linejoin:miter;stroke-opacity:1"
       sodipodi:nodetypes="ssscss" />
    <path
       style="fill:#000000;fill-opacity:1;fill-rule:evenodd;stroke:#000000;stroke-width:0.21874048px;stroke-linecap:butt;stroke-linejoin:miter;stroke-opacity:1"
       d="m -44.595088,629.23208 c -4.612905,-0.14584 -16.199827,5.45018 -24.116567,11.54881 -8.444523,6.50521 -13.987013,16.77797 -14.535975,26.46505 -1.063704,18.77028 7.724887,29.85144 19.610156,30.88384 -11.829439,-1.03404 -20.364541,-12.11512 -19.300926,-30.88384 0.548963,-9.68708 5.968066,-18.47309 14.41259,-24.97829 8.444523,-6.50521 19.530336,-11.56959 21.78433,-11.62743 4.833525,-0.12402 8.879721,0.10159 9.042423,8.56378 0.134587,6.9998 -3.212699,13.82753 -3.113757,20.62134 0.09895,6.79381 3.500818,13.73288 3.037511,22.49034 -0.436964,8.25956 -11.048855,15.4142 -22.605842,15.8705 11.634808,-0.43503 22.476012,-7.5979 22.913066,-15.85912 0.463307,-8.75746 -2.840382,-15.62068 -2.939325,-22.41449 -0.09895,-6.79381 3.615083,-13.90148 3.277262,-20.89442 -0.337164,-6.97927 -2.760142,-8.68179 -6.63826,-9.67884 -0.242384,-0.0623 -0.51916,-0.0975 -0.826686,-0.10723 z m -16.66999,68.97717 c -0.03404,3.2e-4 -0.06805,6.4e-4 -0.102108,9.7e-4 0.03405,-2.1e-4 0.06806,-3.3e-4 0.102108,-9.7e-4 z"
       id="path4169"
       inkscape:connector-curvature="0"
       sodipodi:nodetypes="ssscsssssscsssssccc" />
    <ellipse
       style="display:inline;opacity:1;fill:#ffffff;fill-opacity:1;fill-rule:nonzero;stroke:none;stroke-width:5.19999981;stroke-linecap:round;stroke-linejoin:round;stroke-miterlimit:4;stroke-dasharray:none;stroke-dashoffset:0;stroke-opacity:1"
       id="ellipse4197"
       cx="43.331715"
       cy="637.61426"
       rx="1.7895566"
       ry="2.8142698"
       transform="matrix(0.99628038,0.08617079,-0.14017832,0.99012627,0,0)" />
    <path
       style="fill:#000000;fill-opacity:1;fill-rule:evenodd;stroke:#000000;stroke-width:0.21874048px;stroke-linecap:butt;stroke-linejoin:miter;stroke-opacity:1"
       d="m -18.465001,653.0765 c -2.595331,-0.0209 -4.360338,0.12048 -4.899015,0.40031 -3.447548,1.79091 -8.88471,10.77658 -8.563777,20.01604 0.285359,8.21528 9.145812,16.32078 18.546371,17.53299 -9.400559,-1.21221 -17.945557,-9.2301 -18.230913,-17.44537 -0.320933,-9.23946 4.405095,-17.19768 7.85264,-18.98859 3.447548,-1.79091 56.225258,1.90471 56.457325,17.12755 0.228064,14.96017 -35.4139419,20.33237 -45.566376,19.36281 10.1820602,0.97603 46.726908,-4.22604 46.681439,-19.7345 -0.03904,-13.31458 -38.2629045,-18.1584 -52.277694,-18.27124 z"
       id="path4167"
       inkscape:connector-curvature="0"
       sodipodi:nodetypes="ssscssscss" />
    <ellipse
       transform="matrix(0.99628038,0.08617079,-0.14017832,0.99012627,0,0)"
       ry="2.8142698"
       rx="1.7895566"
       cy="661.01666"
       cx="114.60788"
       id="ellipse4199"
       style="display:inline;opacity:1;fill:#ffffff;fill-opacity:1;fill-rule:nonzero;stroke:none;stroke-width:5.19999981;stroke-linecap:round;stroke-linejoin:round;stroke-miterlimit:4;stroke-dasharray:none;stroke-dashoffset:0;stroke-opacity:1" />
    <path
       style="display:inline;opacity:1;fill:#000000;fill-opacity:1;fill-rule:nonzero;stroke:none;stroke-width:5.19999981;stroke-linecap:round;stroke-linejoin:round;stroke-miterlimit:4;stroke-dasharray:none;stroke-dashoffset:0;stroke-opacity:1"
       d="m -37.333764,637.88329 c 0.551449,4.75016 -1.894377,8.97261 -5.462907,9.43111 -1.290749,0.16583 -2.551583,-0.18347 -3.661373,-0.92175 5.544341,0.81803 9.368912,-4.80041 7.198408,-13.55129 0.99659,1.33967 1.69842,3.08268 1.925872,5.04193 z"
       id="ellipse4264"
       inkscape:connector-curvature="0"
       sodipodi:nodetypes="ssccs" />
    <path
       inkscape:connector-curvature="0"
       id="path4268"
       d="m 22.725162,675.63714 c 0.987034,0.48925 2.061504,0.69885 3.156468,0.55989 3.750523,-0.47619 6.321088,-4.86158 5.741511,-9.79504 -0.01219,-0.0913 -0.02542,-0.18248 -0.03973,-0.27343 -0.508174,-0.54857 -1.04766,-1.05797 -1.613464,-1.53291 2.308771,9.07509 -4.088314,11.60138 -7.244782,11.04149 z"
       style="fill:#000000;fill-opacity:1;fill-rule:evenodd;stroke:none;stroke-width:1px;stroke-linecap:butt;stroke-linejoin:miter;stroke-opacity:1"
       sodipodi:nodetypes="cccccc" />
  </g>
</svg>
