<?xml version="1.0" encoding="UTF-8" standalone="no"?>
<!-- Created with Inkscape (http://www.inkscape.org/) -->

<svg
   xmlns:dc="http://purl.org/dc/elements/1.1/"
   xmlns:cc="http://creativecommons.org/ns#"
   xmlns:rdf="http://www.w3.org/1999/02/22-rdf-syntax-ns#"
   xmlns:svg="http://www.w3.org/2000/svg"
   xmlns="http://www.w3.org/2000/svg"
   xmlns:sodipodi="http://sodipodi.sourceforge.net/DTD/sodipodi-0.dtd"
   xmlns:inkscape="http://www.inkscape.org/namespaces/inkscape"
   width="20.749983mm"
   height="27.613243mm"
   viewBox="0 0 73.523559 97.842194"
   id="svg2"
   version="1.1"
   inkscape:version="0.91 r13725"
   sodipodi:docname="lock.svg">
  <defs
     id="defs4" />
  <sodipodi:namedview
     id="base"
     pagecolor="#ffffff"
     bordercolor="#666666"
     borderopacity="1.0"
     inkscape:pageopacity="0.0"
     inkscape:pageshadow="2"
     inkscape:zoom="1.7186394"
     inkscape:cx="-5.2271759"
     inkscape:cy="89.497705"
     inkscape:document-units="px"
     inkscape:current-layer="g4201"
     showgrid="false"
     fit-margin-top="0"
     fit-margin-left="0"
     fit-margin-right="0"
     fit-margin-bottom="0"
     inkscape:window-width="1276"
     inkscape:window-height="756"
     inkscape:window-x="4"
     inkscape:window-y="0"
     inkscape:window-maximized="1" />
  <metadata
     id="metadata7">
    <rdf:RDF>
      <cc:Work
         rdf:about="">
        <dc:format>image/svg+xml</dc:format>
        <dc:type
           rdf:resource="http://purl.org/dc/dcmitype/StillImage" />
        <dc:title></dc:title>
      </cc:Work>
    </rdf:RDF>
  </metadata>
  <g
     inkscape:label="Layer 1"
     inkscape:groupmode="layer"
     id="layer1"
     transform="translate(-413.22529,-864.65971)">
    <g
       id="g4201"
       transform="translate(-29.75568,-40.596898)">
      <path
         style="fill:#efefef"
         d="m 609.82928,830.32312 c -386.71573,175.09068 -193.35787,87.54533 0,0 z"
         id="path4205"
         inkscape:connector-curvature="0"
         sodipodi:nodetypes="cc" />
      <path
         style="fill:#48b4c0;fill-opacity:1"
         d="m 457.27721,1001.4202 c 2.59784,-1.2293 5.1936,-1.55356 12.66239,-1.58186 11.45255,-0.0433 19.00582,-1.53849 26.56684,-5.25859 5.50246,-2.70728 10.16456,-6.48835 9.19533,-7.45758 -0.25379,-0.25379 -2.98174,0.27264 -6.0621,1.16984 -3.08037,0.89721 -8.07,1.8666 -11.08806,2.15422 -5.6922,0.54246 -14.52736,-0.17646 -14.52736,-1.18224 0,-0.31661 3.27855,-1.0122 7.28569,-1.54571 14.17221,-1.88688 23.83879,-6.37078 30.81128,-14.29194 1.85015,-2.10188 3.59326,-3.8216 3.8736,-3.8216 0.28034,0 0.50971,7.53617 0.50971,16.74704 l 0,16.74702 -31.24752,-0.066 -31.24751,-0.066 3.26771,-1.5463 z m -14.29624,-36.59832 0,-12.26417 2.24655,-0.25842 2.24655,-0.25843 0.50683,-11.02853 c 0.68161,-14.83188 2.97059,-20.50531 11.29133,-27.98636 15.41656,-13.8608 40.29898,-8.48723 49.30229,10.64725 2.45057,5.20816 2.60108,6.09553 2.89599,17.07587 l 0.31108,11.5822 -4.32,2.18909 c -8.77414,4.44621 -16.28767,6.29906 -33.10365,8.16349 -14.90269,1.65229 -20.95882,3.98415 -27.60304,10.62835 l -3.77393,3.77395 0,-12.26416 z m 53.74175,-21.16504 c 0.12798,-4.61115 -0.17047,-9.88233 -0.66373,-11.71375 -1.73693,-6.45047 -9.66949,-12.17104 -16.87723,-12.17104 -4.40047,0 -11.02273,4.07732 -13.67203,8.41786 -2.17284,3.5599 -2.42974,4.75542 -2.7637,12.86098 -0.26686,6.47846 -0.0833,9.27947 0.66749,10.18416 0.87651,1.05612 3.49795,1.21393 17.05597,1.0268 l 16.02029,-0.22112 0.23282,-8.38389 z m -26.4192,-29.70112 c 2.67138,-1.26937 6.98373,-2.54855 9.58303,-2.84264 6.52802,-0.73856 5.21323,-2.28692 -1.48539,-1.74921 -6.89488,0.55344 -13.09588,3.65224 -17.81751,8.90384 -5.02033,5.58378 -4.69919,6.62907 0.57397,1.86818 2.35889,-2.12973 6.47454,-4.9108 9.1459,-6.18017 z m 20.87622,60.20133 c 7.58876,-2.66024 12.9294,-5.52649 19.07708,-10.23845 2.95434,-2.26437 5.56868,-4.11705 5.80962,-4.11705 0.24099,0 0.43809,1.58609 0.43809,3.52464 l 0,3.52461 -6.56653,3.43774 c -7.61129,3.98471 -14.12995,5.87674 -19.95105,5.79077 l -4.11724,-0.0607 5.31003,-1.86145 z"
         id="path4203"
         inkscape:connector-curvature="0"
         sodipodi:nodetypes="csssssssssscccccccccsssscssscccccssscscccsssssscssscscccc" />
    </g>
  </g>
</svg>
